<svg width="44" height="32" viewBox="0 0 44 32" fill="none" xmlns="http://www.w3.org/2000/svg">
<g clip-path="url(#clip0_775_5261)">
<path d="M38.406 8.88992L36.2254 19.0752C36.2254 19.0752 36.1575 19.3232 36.0955 19.392C36.0069 19.4905 35.8977 19.5215 35.7745 19.5689C33.0581 20.6134 31.1305 23.2544 31.1305 26.3463C31.1305 27.6994 31.4995 28.9651 32.1423 30.0488C32.1851 30.1213 32.2109 30.1724 32.1983 30.2553C32.188 30.3271 32.1637 30.356 32.1068 30.4011C30.8383 31.4152 29.2421 32 27.561 32C27.0526 32 26.5367 31.946 26.0194 31.8349C26.0047 31.832 25.9906 31.8283 25.9759 31.8253C25.9604 31.8216 25.9456 31.8186 25.9301 31.8157C21.9835 30.9659 19.4715 27.068 20.3187 23.1101L20.9327 20.2403C20.9474 20.1278 20.9556 20.016 20.9556 19.9057C20.9556 18.7251 20.1357 17.6636 18.9395 17.406C17.6052 17.1196 16.2924 17.9345 15.9419 19.2403L14.4549 26.1871C13.7184 29.6269 10.6883 31.9808 7.31735 31.9808C6.8089 31.9808 6.29307 31.9267 5.77576 31.8157C1.82916 30.9659 -0.68285 27.068 0.164326 23.1101L3.87183 5.79362C4.60831 2.35387 7.63836 0 11.0094 0C11.5178 0 12.0336 0.0540353 12.5509 0.165067C14.798 0.649164 16.5795 2.12144 17.541 4.0297C17.541 4.02896 17.5418 4.02748 17.5418 4.02674C18.0753 4.97569 18.997 5.69887 20.1431 5.94462L20.374 5.99422C22.0787 6.35914 23.7605 5.55601 24.5922 4.12297C24.5944 4.12297 24.5966 4.12297 24.5988 4.12371C26.0349 1.15769 29.3476 -0.558118 32.7053 0.165067C32.7164 0.167287 32.7267 0.170248 32.7378 0.172469C32.757 0.17691 32.7754 0.179871 32.7946 0.184312C36.7405 1.03407 39.2532 4.93202 38.406 8.88992Z" fill="#65C3FF"/>
<path d="M44.0001 26.3334C44.0001 29.463 41.5009 32.0001 38.418 32.0001C35.3351 32.0001 32.8359 29.463 32.8359 26.3334C32.8359 23.2038 35.3351 20.6667 38.418 20.6667C41.5009 20.6667 44.0001 23.2038 44.0001 26.3334ZM37.3345 26.3334C37.3345 26.9409 37.8196 27.4334 38.418 27.4334C39.0165 27.4334 39.5016 26.9409 39.5016 26.3334C39.5016 25.7259 39.0165 25.2334 38.418 25.2334C37.8196 25.2334 37.3345 25.7259 37.3345 26.3334Z" fill="#65C3FF"/>
</g>
<defs>
<clipPath id="clip0_775_5261">
<rect width="44" height="32" fill="white"/>
</clipPath>
</defs>
</svg>
