<svg width="32" height="32" viewBox="0 0 32 32" fill="none" xmlns="http://www.w3.org/2000/svg">
<path d="M18.9853 12.85V11.275C18.9853 10.8572 18.818 10.4566 18.5201 10.1613C18.2223 9.86589 17.8183 9.69995 17.3971 9.69995H11.8382C11.417 9.69995 11.013 9.86589 10.7152 10.1613C10.4173 10.4566 10.25 10.8572 10.25 11.275V20.725C10.25 21.1427 10.4173 21.5433 10.7152 21.8386C11.013 22.134 11.417 22.3 11.8382 22.3H17.3971C17.8183 22.3 18.2223 22.134 18.5201 21.8386C18.818 21.5433 18.9853 21.1427 18.9853 20.725V19.15M14.2206 16H23.75M23.75 16L21.3676 13.6375M23.75 16L21.3676 18.3625" stroke="black" stroke-width="1.5" stroke-linecap="round" stroke-linejoin="round"/>
</svg>
