<svg width="32" height="32" viewBox="0 0 32 32" fill="none" xmlns="http://www.w3.org/2000/svg">
<path d="M23 7.5C23.5046 7.49984 23.9906 7.69041 24.3605 8.0335C24.7305 8.37659 24.9572 8.84684 24.995 9.35L25 9.5V13.5C25.0002 14.0046 24.8096 14.4906 24.4665 14.8605C24.1234 15.2305 23.6532 15.4572 23.15 15.495L23 15.5H9C8.49542 15.5002 8.00943 15.3096 7.63945 14.9665C7.26947 14.6234 7.04284 14.1532 7.005 13.65L7 13.5V9.5C6.99984 8.99542 7.19041 8.50943 7.5335 8.13945C7.87659 7.76947 8.34684 7.54284 8.85 7.505L9 7.5H23ZM23.5 9H8.5V14H23.5V9ZM14 10.5C14.2549 10.5003 14.5 10.5979 14.6854 10.7728C14.8707 10.9478 14.9822 11.187 14.9972 11.4414C15.0121 11.6958 14.9293 11.9464 14.7657 12.1418C14.6021 12.3373 14.3701 12.4629 14.117 12.493L14 12.5H12C11.7451 12.4997 11.5 12.4021 11.3146 12.2272C11.1293 12.0522 11.0178 11.813 11.0028 11.5586C10.9879 11.3042 11.0707 11.0536 11.2343 10.8582C11.3979 10.6627 11.6299 10.5371 11.883 10.507L12 10.5H14ZM23 16.5C23.5046 16.4998 23.9906 16.6904 24.3605 17.0335C24.7305 17.3766 24.9572 17.8468 24.995 18.35L25 18.5V22.5C25.0002 23.0046 24.8096 23.4906 24.4665 23.8605C24.1234 24.2305 23.6532 24.4572 23.15 24.495L23 24.5H9C8.49542 24.5002 8.00943 24.3096 7.63945 23.9665C7.26947 23.6234 7.04284 23.1532 7.005 22.65L7 22.5V18.5C6.99984 17.9954 7.19041 17.5094 7.5335 17.1395C7.87659 16.7695 8.34684 16.5428 8.85 16.505L9 16.5H23ZM23.5 18H8.5V23H23.5V18ZM14 19.5C14.2652 19.5 14.5196 19.6054 14.7071 19.7929C14.8946 19.9804 15 20.2348 15 20.5C15 20.7652 14.8946 21.0196 14.7071 21.2071C14.5196 21.3946 14.2652 21.5 14 21.5H12C11.7348 21.5 11.4804 21.3946 11.2929 21.2071C11.1054 21.0196 11 20.7652 11 20.5C11 20.2348 11.1054 19.9804 11.2929 19.7929C11.4804 19.6054 11.7348 19.5 12 19.5H14Z" fill="black"/>
</svg>
