<svg width="32" height="32" viewBox="0 0 32 32" fill="none" xmlns="http://www.w3.org/2000/svg">
<path d="M17.7354 12.9004V11.3252C17.7354 11.1085 17.6486 10.8993 17.4922 10.7441C17.355 10.6081 17.1739 10.5229 16.9805 10.5039L16.8975 10.5H11.3379C11.1137 10.5001 10.8998 10.5888 10.7432 10.7441C10.5868 10.8993 10.5 11.1085 10.5 11.3252V20.7754L10.5039 20.8555C10.5226 21.043 10.6061 21.2205 10.7432 21.3564C10.8998 21.5117 11.1137 21.5995 11.3379 21.5996H16.8975C17.1216 21.5995 17.3356 21.5117 17.4922 21.3564C17.6486 21.2013 17.7352 20.992 17.7354 20.7754V19.2002C17.7354 18.786 18.0711 18.4502 18.4854 18.4502C18.8995 18.4502 19.2354 18.786 19.2354 19.2002V20.7754C19.2352 21.3939 18.9869 21.9855 18.5479 22.4209C18.109 22.8561 17.5154 23.0995 16.8975 23.0996H11.3379C10.7199 23.0995 10.1264 22.8561 9.6875 22.4209C9.3033 22.0399 9.06525 21.5394 9.01172 21.0059L9 20.7754V11.3252C9 10.7065 9.24831 10.1142 9.6875 9.67871C10.1264 9.24362 10.72 9.00009 11.3379 9H16.8975L17.1279 9.01172C17.6615 9.06435 18.1639 9.29805 18.5479 9.67871C18.987 10.1142 19.2354 10.7065 19.2354 11.3252V12.9004C19.2351 13.3144 18.8994 13.6504 18.4854 13.6504C18.0713 13.6504 17.7356 13.3144 17.7354 12.9004Z" fill="black"/>
<path d="M15.0742 13.2345C15.359 12.934 15.8331 12.9208 16.1338 13.2052C16.4344 13.49 16.4478 13.965 16.1631 14.2657L15.0742 13.2345ZM16.1338 19.295C15.8331 19.5794 15.359 19.5662 15.0742 19.2657L12.7051 16.7657C12.4314 16.4765 12.4314 16.0236 12.7051 15.7345L15.0742 13.2345L16.1631 14.2657L14.9941 15.5001H22.25C22.6642 15.5001 23 15.8359 23 16.2501C23 16.6643 22.6642 17.0001 22.25 17.0001H14.9941L16.1631 18.2345L16.2129 18.2931C16.4448 18.594 16.4156 19.028 16.1338 19.295Z" fill="black"/>
</svg>
