<svg width="32" height="32" viewBox="0 0 32 32" fill="none" xmlns="http://www.w3.org/2000/svg">
<path d="M9.8125 22.75C10.2448 22.2658 12.2697 20.0375 12.8631 20.0375H19.1373C19.9971 20.0375 21.7525 21.8846 22.1875 22.5357M25 16C25 20.9706 20.9706 25 16 25C11.0294 25 7 20.9706 7 16C7 11.0294 11.0294 7 16 7C20.9706 7 25 11.0294 25 16ZM19.2239 12.9325C19.2239 11.2154 17.7744 9.8125 16.0003 9.8125C14.2262 9.8125 12.7766 11.2154 12.7766 12.9325C12.7766 14.6495 14.2262 16.0524 16.0003 16.0524C17.7744 16.0524 19.2239 14.6495 19.2239 12.9325Z" stroke="black" stroke-width="1.5"/>
</svg>
