<svg width="32" height="32" viewBox="0 0 32 32" fill="none" xmlns="http://www.w3.org/2000/svg">
<g clip-path="url(#clip0_1808_1150)">
<path fill-rule="evenodd" clip-rule="evenodd" d="M21.3298 7.55301L24.3158 8.54823C24.4404 8.58974 24.5556 8.65539 24.6549 8.74144C24.7541 8.82749 24.8355 8.93225 24.8943 9.04974C24.953 9.16723 24.9881 9.29516 24.9975 9.4262C25.0068 9.55725 24.9903 9.68886 24.9488 9.81351C24.9073 9.93816 24.8416 10.0534 24.7556 10.1527C24.6696 10.252 24.5648 10.3333 24.4474 10.3921C24.3299 10.4509 24.202 10.486 24.071 10.4953C23.94 10.5047 23.8084 10.4882 23.6838 10.4466L21.9998 9.88452V21C21.9997 21.7585 21.7532 22.4964 21.2975 23.1027C20.8419 23.7091 20.2016 24.151 19.4732 24.3619C18.7448 24.5728 17.9675 24.5414 17.2585 24.2724C16.5494 24.0034 15.9469 23.5113 15.5417 22.8702C15.1364 22.2291 14.9502 21.4736 15.0112 20.7176C15.0723 19.9615 15.3771 19.2457 15.88 18.6779C16.3828 18.1101 17.0565 17.7211 17.7995 17.5693C18.5425 17.4175 19.3147 17.5112 19.9998 17.8363V8.51122C19.9998 7.82107 20.6748 7.33397 21.3298 7.55301ZM18.4999 19.4996C18.102 19.4996 17.7205 19.6577 17.4392 19.9391C17.1579 20.2204 16.9999 20.602 16.9999 21C16.9999 21.3979 17.1579 21.7795 17.4392 22.0608C17.7205 22.3422 18.102 22.5003 18.4999 22.5003C18.8977 22.5003 19.2792 22.3422 19.5605 22.0608C19.8418 21.7795 19.9998 21.3979 19.9998 21C19.9998 20.602 19.8418 20.2204 19.5605 19.9391C19.2792 19.6577 18.8977 19.4996 18.4999 19.4996ZM11.9999 20.4998C12.2651 20.4998 12.5195 20.6052 12.707 20.7928C12.8946 20.9804 12.9999 21.2348 12.9999 21.5001C12.9999 21.7653 12.8946 22.0198 12.707 22.2073C12.5195 22.3949 12.2651 22.5003 11.9999 22.5003H7.99999C7.73477 22.5003 7.48042 22.3949 7.29289 22.2073C7.10536 22.0198 7 21.7653 7 21.5001C7 21.2348 7.10536 20.9804 7.29289 20.7928C7.48042 20.6052 7.73477 20.4998 7.99999 20.4998H11.9999ZM13.9999 14.4985C14.2651 14.4985 14.5195 14.6039 14.707 14.7915C14.8945 14.9791 14.9999 15.2335 14.9999 15.4988C14.9999 15.764 14.8945 16.0184 14.707 16.206C14.5195 16.3936 14.2651 16.499 13.9999 16.499H7.99999C7.73477 16.499 7.48042 16.3936 7.29289 16.206C7.10536 16.0184 7 15.764 7 15.4988C7 15.2335 7.10536 14.9791 7.29289 14.7915C7.48042 14.6039 7.73477 14.4985 7.99999 14.4985H13.9999ZM16.9999 8.49722C17.2547 8.4975 17.4999 8.59512 17.6852 8.77013C17.8706 8.94514 17.9821 9.18432 17.997 9.43882C18.012 9.69332 17.9292 9.94392 17.7656 10.1394C17.602 10.3349 17.37 10.4605 17.1169 10.4907L16.9999 10.4977H7.99999C7.74511 10.4974 7.49996 10.3998 7.31463 10.2248C7.12929 10.0497 7.01776 9.81055 7.00283 9.55606C6.98789 9.30156 7.07067 9.05096 7.23426 8.85547C7.39785 8.65997 7.6299 8.53433 7.88299 8.50422L7.99999 8.49722H16.9999Z" fill="black"/>
</g>
<defs>
<clipPath id="clip0_1808_1150">
<rect width="32" height="32" fill="white"/>
</clipPath>
</defs>
</svg>
