<svg width="48" height="48" viewBox="0 0 48 48" fill="none" xmlns="http://www.w3.org/2000/svg">
<circle cx="24" cy="24" r="24" fill="#E9E9E9"/>
<path d="M32 28.3111C31.4287 27.482 30.8738 26.2598 30.8738 24.7859L30.8984 22.77C30.8984 18.7711 27.8322 15.5294 24.05 15.5294C23.6431 15.5294 23.2446 15.5675 22.8576 15.6404M21.3667 32.1176C22.0788 32.6663 23.0191 33 24.05 33C25.0809 33 26.0212 32.6663 26.7333 32.1176M27.8067 29.2941H16.5108C16.0866 29.2941 15.8496 28.6512 16.1062 28.2941C16.7017 27.4653 17.2765 26.2497 17.2765 24.7859L17.301 22.6648C17.301 20.9642 17.8638 19.4024 18.8032 18.1765M29.9533 31.9413L17.61 15" stroke="black" stroke-width="2" stroke-linecap="round"/>
</svg>
