<svg width="26" height="21" viewBox="0 0 26 21" fill="none" xmlns="http://www.w3.org/2000/svg">
<line x1="22.5" y1="0.5" x2="22.5" y2="6.5" stroke="#FCFEFF" stroke-linecap="round"/>
<line x1="19.5" y1="3.5" x2="25.5" y2="3.5" stroke="#FCFEFF" stroke-linecap="round"/>
<path d="M7.19026 15.6136C6.96992 15.1337 6.06745 14.4331 5.84289 14.332C5.32919 14.0449 4.73197 13.9299 4.14386 14.0048C3.55576 14.0798 3.00963 14.3405 2.59016 14.7465C2.1707 15.1525 1.90134 15.6812 1.82387 16.2506C1.74639 16.8199 1.86513 17.3981 2.16166 17.8954C2.45819 18.3928 2.91595 18.7815 3.46394 19.0013C4.01194 19.2212 4.61954 19.2598 5.19253 19.1113C5.76553 18.9627 6.27188 18.6353 6.63308 18.1798C6.99428 17.7243 7.19013 17.1661 7.19026 16.5919V7.63254C7.19026 7.16505 7.51415 6.75995 7.97017 6.65706L16.2008 4.80005L16.2007 14.73M16.2007 14.73L16.2008 15.7085C16.2006 16.2828 16.0048 16.8409 15.6436 17.2964C15.2824 17.752 14.776 18.0794 14.2031 18.2279C13.6301 18.3764 13.0225 18.3378 12.4745 18.118C11.9265 17.8981 11.4687 17.5094 11.1722 17.0121C10.8756 16.5147 10.7569 15.9365 10.8344 15.3672C10.9119 14.7979 11.1812 14.2692 11.6007 13.8631C12.0201 13.4571 12.5663 13.1964 13.1544 13.1215C13.7425 13.0465 14.3397 13.1615 14.8534 13.4487C15.0779 13.5497 15.9802 14.2502 16.2007 14.73Z" stroke="#FCFEFF" stroke-width="1.5" stroke-linecap="round" stroke-linejoin="round"/>
</svg>
