<svg width="24" height="24" viewBox="0 0 24 24" fill="none" xmlns="http://www.w3.org/2000/svg">
<path fill-rule="evenodd" clip-rule="evenodd" d="M3.80772 6.20635C4.70785 5.30649 5.92853 4.80097 7.20132 4.80097C8.47411 4.80097 9.69478 5.30649 10.5949 6.20635L12.0013 7.61155L13.4077 6.20635C13.8505 5.7479 14.3802 5.38223 14.9658 5.13066C15.5514 4.8791 16.1812 4.74669 16.8186 4.74115C17.4559 4.73561 18.088 4.85706 18.6779 5.09841C19.2678 5.33975 19.8037 5.69617 20.2544 6.14685C20.7051 6.59754 21.0615 7.13347 21.3029 7.72337C21.5442 8.31327 21.6657 8.94533 21.6601 9.58268C21.6546 10.22 21.5222 10.8499 21.2706 11.4355C21.019 12.0211 20.6534 12.5508 20.1949 12.9935L12.0013 21.1883L3.80772 12.9935C2.90786 12.0934 2.40234 10.8727 2.40234 9.59995C2.40234 8.32716 2.90786 7.10648 3.80772 6.20635Z" fill="#FCFEFF" stroke="#3C3E44" stroke-width="2" stroke-linejoin="round"/>
</svg>
