<svg width="19" height="26" viewBox="0 0 19 26" fill="none" xmlns="http://www.w3.org/2000/svg">
<g clip-path="url(#clip0_1538_2617)">
<path d="M4.5 0H2.5C1.39543 0 0.5 0.89543 0.5 2V24C0.5 25.1046 1.39543 26 2.5 26H4.5C5.60457 26 6.5 25.1046 6.5 24V2C6.5 0.89543 5.60457 0 4.5 0Z" fill="#BFC4CA"/>
<path d="M16.5 0H14.5C13.3954 0 12.5 0.89543 12.5 2V24C12.5 25.1046 13.3954 26 14.5 26H16.5C17.6046 26 18.5 25.1046 18.5 24V2C18.5 0.89543 17.6046 0 16.5 0Z" fill="#BFC4CA"/>
</g>
<defs>
<clipPath id="clip0_1538_2617">
<rect width="19" height="26" fill="white"/>
</clipPath>
</defs>
</svg>
