<svg width="1025" height="612" viewBox="0 0 1025 612" fill="none" xmlns="http://www.w3.org/2000/svg">
<g filter="url(#filter0_d_1518_2479)">
<mask id="path-1-inside-1_1518_2479" fill="white">
<path d="M740 6C763.748 6 783 25.2518 783 49C783 72.7482 763.748 92 740 92H713.603C706.699 92.0001 701.103 97.5965 701.103 104.5C701.103 111.403 706.699 117 713.603 117H981C992.038 117 1002.19 120.806 1010.21 127.176C987.74 151.238 969.87 179.646 957.991 211H472.307C466.921 213.117 463.107 218.363 463.107 224.5C463.107 232.508 469.599 239 477.607 239H811.5C833.468 239 852.83 250.156 864.231 267.111C873.539 272.58 886.792 276 901.5 276C917.475 276 934.144 266.658 945.584 255.752C942.901 270.595 941.5 285.884 941.5 301.5C941.5 318.687 943.198 335.477 946.434 351.713C937.298 343.742 922.469 337 904.138 337C884.767 337 867.667 340.692 857.454 346.323C845.89 358.446 829.577 366 811.5 366H778.102C770.37 366 764.102 372.268 764.102 380C764.102 387.732 770.37 394 778.102 394H899C924.957 394 946 415.043 946 441C946 466.957 924.957 488 899 488H372.1C365.472 488 360.1 493.373 360.1 500C360.1 506.627 365.472 512 372.1 512H723C746.748 512 766 531.252 766 555C766 578.748 746.748 598 723 598H66C42.2518 598 23 578.748 23 555C23 531.252 42.2518 512 66 512H269.748C276.375 512 281.748 506.627 281.748 500C281.748 493.373 276.375 488 269.748 488H250C224.043 488 203 466.957 203 441C203 415.043 224.043 394 250 394H671.75C679.482 394 685.75 387.732 685.75 380C685.75 372.268 679.482 366 671.75 366H69.5C34.4299 366 6 337.57 6 302.5C6 267.43 34.4299 239 69.5 239H369.507C377.515 239 384.007 232.508 384.007 224.5C384.007 218.363 380.194 213.117 374.808 211H332C306.043 211 285 189.957 285 164C285 138.043 306.043 117 332 117H610.25C617.154 117 622.75 111.404 622.75 104.5C622.75 97.5964 617.154 92 610.25 92H83C59.2518 92 40 72.7482 40 49C40 25.2518 59.2518 6 83 6H740Z"/>
</mask>
<path d="M740 6C763.748 6 783 25.2518 783 49C783 72.7482 763.748 92 740 92H713.603C706.699 92.0001 701.103 97.5965 701.103 104.5C701.103 111.403 706.699 117 713.603 117H981C992.038 117 1002.19 120.806 1010.21 127.176C987.74 151.238 969.87 179.646 957.991 211H472.307C466.921 213.117 463.107 218.363 463.107 224.5C463.107 232.508 469.599 239 477.607 239H811.5C833.468 239 852.83 250.156 864.231 267.111C873.539 272.58 886.792 276 901.5 276C917.475 276 934.144 266.658 945.584 255.752C942.901 270.595 941.5 285.884 941.5 301.5C941.5 318.687 943.198 335.477 946.434 351.713C937.298 343.742 922.469 337 904.138 337C884.767 337 867.667 340.692 857.454 346.323C845.89 358.446 829.577 366 811.5 366H778.102C770.37 366 764.102 372.268 764.102 380C764.102 387.732 770.37 394 778.102 394H899C924.957 394 946 415.043 946 441C946 466.957 924.957 488 899 488H372.1C365.472 488 360.1 493.373 360.1 500C360.1 506.627 365.472 512 372.1 512H723C746.748 512 766 531.252 766 555C766 578.748 746.748 598 723 598H66C42.2518 598 23 578.748 23 555C23 531.252 42.2518 512 66 512H269.748C276.375 512 281.748 506.627 281.748 500C281.748 493.373 276.375 488 269.748 488H250C224.043 488 203 466.957 203 441C203 415.043 224.043 394 250 394H671.75C679.482 394 685.75 387.732 685.75 380C685.75 372.268 679.482 366 671.75 366H69.5C34.4299 366 6 337.57 6 302.5C6 267.43 34.4299 239 69.5 239H369.507C377.515 239 384.007 232.508 384.007 224.5C384.007 218.363 380.194 213.117 374.808 211H332C306.043 211 285 189.957 285 164C285 138.043 306.043 117 332 117H610.25C617.154 117 622.75 111.404 622.75 104.5C622.75 97.5964 617.154 92 610.25 92H83C59.2518 92 40 72.7482 40 49C40 25.2518 59.2518 6 83 6H740Z" fill="white" fill-opacity="0.5" shape-rendering="crispEdges"/>
<path d="M740 6L740 3H740V6ZM740 92L740 95H740L740 92ZM713.603 92L713.603 89L713.602 89L713.603 92ZM713.603 117L713.602 120H713.603V117ZM1010.21 127.176L1012.4 129.223L1014.62 126.848L1012.07 124.827L1010.21 127.176ZM957.991 211V214H960.063L960.797 212.063L957.991 211ZM472.307 211V208H471.738L471.209 208.208L472.307 211ZM477.607 239L477.607 242H477.607V239ZM864.231 267.111L861.742 268.785L862.123 269.352L862.712 269.698L864.231 267.111ZM945.584 255.752L948.536 256.286L950.173 247.232L943.514 253.581L945.584 255.752ZM946.434 351.713L944.461 353.973L951.097 359.763L949.376 351.127L946.434 351.713ZM904.138 337L904.138 334H904.138V337ZM857.454 346.323L856.006 343.696L855.602 343.919L855.283 344.253L857.454 346.323ZM778.102 366L778.102 363H778.102L778.102 366ZM899 488L899 491H899L899 488ZM372.1 488L372.1 485L372.1 488ZM372.1 512V515V512ZM723 512L723 509H723V512ZM723 598L723 601H723L723 598ZM66 598L66 601H66V598ZM66 512L66 509H66L66 512ZM269.748 512L269.748 515L269.748 515L269.748 512ZM269.748 488L269.748 485H269.748V488ZM250 394L250 391H250L250 394ZM671.75 394L671.75 397L671.75 397L671.75 394ZM671.75 366L671.75 363H671.75V366ZM374.808 211L375.905 208.208L375.376 208H374.808V211ZM332 117L332 114H332L332 117ZM622.75 104.5L625.75 104.5L622.75 104.5ZM83 92L83 95H83V92ZM83 6L83 3L83 3L83 6ZM740 6L740 9C762.091 9 780 26.9086 780 49H783H786C786 23.5949 765.405 3 740 3L740 6ZM783 49H780C780 71.0914 762.091 89 740 89L740 92L740 95C765.405 95 786 74.4051 786 49H783ZM740 92V89H713.603V92V95H740V92ZM713.603 92L713.602 89C705.042 89.0001 698.103 95.9396 698.103 104.5H701.103H704.103C704.103 99.2534 708.356 95.0001 713.603 95L713.603 92ZM701.103 104.5H698.103C698.103 113.06 705.042 120 713.602 120L713.603 117L713.603 114C708.356 114 704.103 109.747 704.103 104.5H701.103ZM713.603 117V120H981V117V114H713.603V117ZM981 117V120C991.336 120 1000.83 123.561 1008.34 129.525L1010.21 127.176L1012.07 124.827C1003.54 118.051 992.74 114 981 114V117ZM1010.21 127.176L1008.01 125.128C985.286 149.471 967.205 178.212 955.186 209.937L957.991 211L960.797 212.063C972.535 181.08 990.195 153.005 1012.4 129.223L1010.21 127.176ZM957.991 211V208H472.307V211V214H957.991V211ZM472.307 211L471.209 208.208C464.714 210.76 460.107 217.088 460.107 224.5H463.107H466.107C466.107 219.638 469.127 215.473 473.404 213.792L472.307 211ZM463.107 224.5H460.107C460.107 234.165 467.943 242 477.607 242L477.607 239L477.607 236C471.256 236 466.107 230.851 466.107 224.5H463.107ZM477.607 239V242H811.5V239V236H477.607V239ZM811.5 239V242C832.427 242 850.874 252.624 861.742 268.785L864.231 267.111L866.721 265.437C854.786 247.689 834.509 236 811.5 236V239ZM864.231 267.111L862.712 269.698C872.571 275.49 886.373 279 901.5 279V276V273C887.21 273 874.508 269.67 865.751 264.525L864.231 267.111ZM901.5 276V279C918.529 279 935.903 269.127 947.654 257.923L945.584 255.752L943.514 253.581C932.386 264.19 916.42 273 901.5 273V276ZM945.584 255.752L942.632 255.218C939.917 270.237 938.5 285.704 938.5 301.5H941.5H944.5C944.5 286.064 945.885 270.953 948.536 256.286L945.584 255.752ZM941.5 301.5H938.5C938.5 318.885 940.218 335.872 943.491 352.299L946.434 351.713L949.376 351.127C946.178 335.083 944.5 318.489 944.5 301.5H941.5ZM946.434 351.713L948.406 349.452C938.726 341.006 923.197 334 904.138 334L904.138 337L904.138 340C921.742 340 935.87 346.478 944.461 353.973L946.434 351.713ZM904.138 337V334C884.49 334 866.827 337.729 856.006 343.696L857.454 346.323L858.903 348.95C868.506 343.655 885.043 340 904.138 340V337ZM857.454 346.323L855.283 344.253C844.262 355.807 828.723 363 811.5 363V366V369C830.431 369 847.518 361.086 859.625 348.394L857.454 346.323ZM811.5 366V363H778.102V366V369H811.5V366ZM778.102 366L778.102 363C768.713 363 761.102 370.611 761.102 380H764.102H767.102C767.102 373.925 772.026 369 778.102 369L778.102 366ZM764.102 380H761.102C761.102 389.389 768.713 397 778.102 397V394V391C772.026 391 767.102 386.075 767.102 380H764.102ZM778.102 394V397H899V394V391H778.102V394ZM899 394V397C923.301 397 943 416.699 943 441H946H949C949 413.386 926.614 391 899 391V394ZM946 441H943C943 465.301 923.301 485 899 485L899 488L899 491C926.614 491 949 468.614 949 441H946ZM899 488V485H372.1V488V491H899V488ZM372.1 488L372.1 485C363.815 485 357.1 491.716 357.1 500H360.1H363.1C363.1 495.029 367.129 491 372.1 491L372.1 488ZM360.1 500H357.1C357.1 508.284 363.815 515 372.1 515L372.1 512L372.1 509C367.129 509 363.1 504.971 363.1 500H360.1ZM372.1 512V515H723V512V509H372.1V512ZM723 512L723 515C745.091 515 763 532.909 763 555H766H769C769 529.595 748.405 509 723 509L723 512ZM766 555H763C763 577.091 745.091 595 723 595L723 598L723 601C748.405 601 769 580.405 769 555H766ZM723 598V595H66V598V601H723V598ZM66 598L66 595C43.9086 595 26 577.091 26 555H23H20C20 580.405 40.5949 601 66 601L66 598ZM23 555H26C26 532.909 43.9086 515 66 515L66 512L66 509C40.5949 509 20 529.595 20 555H23ZM66 512V515H269.748V512V509H66V512ZM269.748 512L269.748 515C278.032 515 284.748 508.284 284.748 500H281.748H278.748C278.748 504.97 274.718 509 269.748 509L269.748 512ZM281.748 500H284.748C284.748 491.716 278.032 485 269.748 485L269.748 488L269.748 491C274.718 491 278.748 495.03 278.748 500H281.748ZM269.748 488V485H250V488V491H269.748V488ZM250 488V485C225.699 485 206 465.301 206 441H203H200C200 468.614 222.386 491 250 491V488ZM203 441H206C206 416.699 225.699 397 250 397L250 394L250 391C222.386 391 200 413.386 200 441H203ZM250 394V397H671.75V394V391H250V394ZM671.75 394L671.75 397C681.139 397 688.75 389.389 688.75 380H685.75H682.75C682.75 386.075 677.825 391 671.75 391L671.75 394ZM685.75 380H688.75C688.75 370.611 681.139 363 671.75 363L671.75 366L671.75 369C677.825 369 682.75 373.925 682.75 380H685.75ZM671.75 366V363H69.5V366V369H671.75V366ZM69.5 366V363C36.0868 363 9 335.913 9 302.5H6H3C3 339.227 32.7731 369 69.5 369V366ZM6 302.5H9C9 269.087 36.0868 242 69.5 242V239V236C32.7731 236 3 265.773 3 302.5H6ZM69.5 239V242H369.507V239V236H69.5V239ZM369.507 239V242C379.172 242 387.007 234.165 387.007 224.5H384.007H381.007C381.007 230.851 375.858 236 369.507 236V239ZM384.007 224.5H387.007C387.007 217.088 382.4 210.76 375.905 208.208L374.808 211L373.71 213.792C377.988 215.473 381.007 219.637 381.007 224.5H384.007ZM374.808 211V208H332V211V214H374.808V211ZM332 211V208C307.699 208 288 188.301 288 164H285H282C282 191.614 304.386 214 332 214V211ZM285 164H288C288 139.699 307.699 120 332 120L332 117L332 114C304.386 114 282 136.386 282 164H285ZM332 117V120H610.25V117V114H332V117ZM610.25 117V120C618.81 120 625.75 113.06 625.75 104.5H622.75H619.75C619.75 109.747 615.497 114 610.25 114V117ZM622.75 104.5L625.75 104.5C625.75 95.9396 618.81 89 610.25 89V92V95C615.497 95 619.75 99.2533 619.75 104.5L622.75 104.5ZM610.25 92V89H83V92V95H610.25V92ZM83 92L83 89C60.9086 89 43 71.0914 43 49H40H37C37 74.4051 57.5949 95 83 95L83 92ZM40 49H43C43 26.9086 60.9086 9 83 9L83 6L83 3C57.5949 3 37 23.5949 37 49H40ZM83 6V9H740V6V3H83V6Z" fill="#FCFEFF" mask="url(#path-1-inside-1_1518_2479)"/>
</g>
<defs>
<filter id="filter0_d_1518_2479" x="0" y="0" width="1024.21" height="612" filterUnits="userSpaceOnUse" color-interpolation-filters="sRGB">
<feFlood flood-opacity="0" result="BackgroundImageFix"/>
<feColorMatrix in="SourceAlpha" type="matrix" values="0 0 0 0 0 0 0 0 0 0 0 0 0 0 0 0 0 0 127 0" result="hardAlpha"/>
<feOffset dx="4" dy="4"/>
<feGaussianBlur stdDeviation="5"/>
<feComposite in2="hardAlpha" operator="out"/>
<feColorMatrix type="matrix" values="0 0 0 0 0 0 0 0 0 0 0 0 0 0 0 0 0 0 0.25 0"/>
<feBlend mode="normal" in2="BackgroundImageFix" result="effect1_dropShadow_1518_2479"/>
<feBlend mode="normal" in="SourceGraphic" in2="effect1_dropShadow_1518_2479" result="shape"/>
</filter>
</defs>
</svg>
