<svg width="113" height="33" viewBox="0 0 113 33" fill="none" xmlns="http://www.w3.org/2000/svg">
<rect width="113" height="33" rx="16.5" fill="#009BFF"/>
<line x1="21.5" y1="11" x2="21.5" y2="22" stroke="#FCFEFF" stroke-linecap="round"/>
<line x1="16.5" y1="16" x2="27.5" y2="16" stroke="#FCFEFF" stroke-linecap="round"/>
<path d="M38.0977 17.5957C40.5928 17.5957 42.1035 18.416 42.1035 19.8379C42.1035 21.2734 40.5928 22.0938 38.0977 22.1074C35.5957 22.0938 34.0713 21.2734 34.0645 19.8379C34.0713 18.416 35.5957 17.5957 38.0977 17.5957ZM33.0117 16.3242V10.7188H34.0645V12.5781H37.6055V10.7188H38.6719V16.3242H33.0117ZM34.0645 15.4492H37.6055V13.4258H34.0645V15.4492ZM35.1445 19.8379C35.1309 20.7129 36.2656 21.2324 38.0977 21.2324C39.9365 21.2324 41.0576 20.7129 41.0645 19.8379C41.0576 18.9697 39.9365 18.457 38.0977 18.4434C36.2656 18.457 35.1309 18.9697 35.1445 19.8379ZM40.9277 17.2676V9.95312H41.9941V13.0156H43.8262V13.9316H41.9941V17.2676H40.9277ZM51.7285 12.373C51.7354 13.7197 52.6719 15.0801 54.2305 15.668L53.6699 16.4883C52.501 16.0371 51.6602 15.1689 51.2227 14.123C50.7783 15.2783 49.9033 16.3105 48.707 16.8301L48.1191 15.9961C49.7188 15.2988 50.6963 13.7266 50.7031 12.373V10.7188H51.7285V12.373ZM50.334 19.9199C50.3203 18.5459 51.8789 17.7393 54.4082 17.7461C56.9238 17.7393 58.4893 18.5459 58.4961 19.9199C58.4893 21.2803 56.9238 22.0801 54.4082 22.0801C51.8789 22.0801 50.3203 21.2803 50.334 19.9199ZM51.4004 19.9199C51.3867 20.7471 52.542 21.2529 54.4082 21.2461C56.2539 21.2529 57.416 20.7471 57.4297 19.9199C57.416 19.0791 56.2539 18.5732 54.4082 18.5664C52.542 18.5732 51.3867 19.0791 51.4004 19.9199ZM54.7773 17.0898V10.1992H55.7891V13.2344H57.4023V9.9668H58.4277V17.4727H57.4023V14.123H55.7891V17.0898H54.7773ZM64.3887 11.8672C64.375 13.6035 65.6123 15.1279 67.3965 15.7363L66.7949 16.5703C65.4551 16.0713 64.4023 15.0801 63.876 13.8018C63.3564 15.2578 62.249 16.3857 60.7793 16.9395L60.1914 16.0645C62.0645 15.4082 63.3086 13.7949 63.3223 11.9082V10.6504H64.3887V11.8672ZM62.1738 19.8105C62.167 18.3477 63.7188 17.5068 66.248 17.5137C68.7705 17.5068 70.3223 18.3477 70.3223 19.8105C70.3223 21.2598 68.7705 22.0801 66.248 22.0801C63.7188 22.0801 62.167 21.2598 62.1738 19.8105ZM63.2402 19.8105C63.2334 20.6924 64.3818 21.2256 66.248 21.2188C68.1074 21.2256 69.2559 20.6924 69.2559 19.8105C69.2559 18.9014 68.1074 18.3613 66.248 18.3613C64.3818 18.3613 63.2334 18.9014 63.2402 19.8105ZM66.4941 13.4531V12.5645H69.2012V9.95312H70.2812V17.1582H69.2012V13.4531H66.4941ZM81.7109 9.95312V14.9707H83.748V15.8594H81.7109V22.1074H80.6445V9.95312H81.7109ZM72.2363 12.7969V11.9082H75.3672V10.1035H76.4336V11.9082H79.4688V12.7969H72.2363ZM72.9336 16.5977C72.9268 14.957 74.1846 13.8086 75.9141 13.8086C77.6299 13.8086 78.8809 14.957 78.8945 16.5977C78.8809 18.2451 77.6299 19.3867 75.9141 19.3867C74.1846 19.3867 72.9268 18.2451 72.9336 16.5977ZM73.959 16.5977C73.9521 17.7051 74.7793 18.4844 75.9141 18.4707C77.0352 18.4844 77.8555 17.7051 77.8691 16.5977C77.8555 15.4971 77.0352 14.7041 75.9141 14.7109C74.7793 14.7041 73.9521 15.4971 73.959 16.5977ZM94.4531 9.95312V22.1074H93.373V9.95312H94.4531ZM84.5547 18.9492C87.8428 17.3906 89.5244 15.0596 89.7637 12.1543H85.1152V11.2793H90.8574C90.8438 14.7725 89.2168 17.8691 85.1426 19.8242L84.5547 18.9492Z" fill="white"/>
</svg>
