<svg width="24" height="23" viewBox="0 0 24 23" fill="none" xmlns="http://www.w3.org/2000/svg">
<path d="M9.54009 16.1173C9.24773 15.5042 8.05022 14.609 7.75224 14.4798C7.07059 14.1129 6.27813 13.966 5.49776 14.0617C4.71739 14.1575 3.99272 14.4906 3.43612 15.0094C2.87952 15.5282 2.52211 16.2038 2.41931 16.9312C2.3165 17.6587 2.47406 18.3975 2.86753 19.033C3.26101 19.6685 3.86841 20.1652 4.59556 20.4461C5.3227 20.727 6.12895 20.7764 6.88927 20.5866C7.64959 20.3968 8.32148 19.9785 8.80076 19.3964C9.28004 18.8144 9.53992 18.1011 9.5401 17.3674V5.7038C9.5401 5.23333 9.86804 4.82649 10.3278 4.7266L21.4964 2.30005L21.4963 14.9884M21.4963 14.9884L21.4964 16.2386C21.4962 16.9724 21.2363 17.6856 20.757 18.2677C20.2777 18.8497 19.6059 19.2681 18.8455 19.4579C18.0852 19.6477 17.279 19.5983 16.5518 19.3174C15.8247 19.0365 15.2173 18.5398 14.8238 17.9043C14.4303 17.2688 14.2728 16.53 14.3756 15.8025C14.4784 15.075 14.8358 14.3995 15.3924 13.8807C15.949 13.3618 16.6737 13.0287 17.454 12.933C18.2344 12.8372 19.0269 12.9842 19.7085 13.3511C20.0064 13.4802 21.2037 14.3752 21.4963 14.9884Z" stroke="#3C3E44" stroke-width="2" stroke-linecap="round" stroke-linejoin="round"/>
</svg>
