<svg width="48" height="48" viewBox="0 0 48 48" fill="none" xmlns="http://www.w3.org/2000/svg">
<rect width="48" height="48" rx="24" fill="#65C3FF"/>
<path d="M21.1204 21.1199V20.1199C20.5681 20.1199 20.1204 20.5676 20.1204 21.1199H21.1204ZM21.216 21.1199H22.216C22.216 20.5676 21.7683 20.1199 21.216 20.1199V21.1199ZM26.8804 21.1199V20.1199C26.3281 20.1199 25.8804 20.5676 25.8804 21.1199H26.8804ZM26.9654 21.1199H27.9654C27.9654 20.5676 27.5177 20.1199 26.9654 20.1199V21.1199ZM21.216 21.1968V22.1968C21.7683 22.1968 22.216 21.7491 22.216 21.1968H21.216ZM21.1204 21.1968H20.1204C20.1204 21.7491 20.5681 22.1968 21.1204 22.1968V21.1968ZM26.9654 21.1968V22.1968C27.5177 22.1968 27.9654 21.7491 27.9654 21.1968H26.9654ZM26.8804 21.1968H25.8804C25.8804 21.7491 26.3281 22.1968 26.8804 22.1968V21.1968ZM21.5226 26.3927C21.2319 25.9231 20.6156 25.7781 20.146 26.0688C19.6764 26.3595 19.5314 26.9758 19.8221 27.4454L21.5226 26.3927ZM28.1787 27.4454C28.4694 26.9758 28.3244 26.3595 27.8548 26.0688C27.3852 25.7781 26.7688 25.9231 26.4782 26.3927L28.1787 27.4454ZM33.6004 23.9999H32.6004C32.6004 28.7495 28.75 32.5999 24.0004 32.5999V33.5999V34.5999C29.8546 34.5999 34.6004 29.8541 34.6004 23.9999H33.6004ZM24.0004 33.5999V32.5999C19.2507 32.5999 15.4004 28.7495 15.4004 23.9999H14.4004H13.4004C13.4004 29.8541 18.1462 34.5999 24.0004 34.5999V33.5999ZM14.4004 23.9999H15.4004C15.4004 19.2503 19.2507 15.3999 24.0004 15.3999V14.3999V13.3999C18.1462 13.3999 13.4004 18.1457 13.4004 23.9999H14.4004ZM24.0004 14.3999V15.3999C28.75 15.3999 32.6004 19.2503 32.6004 23.9999H33.6004H34.6004C34.6004 18.1457 29.8546 13.3999 24.0004 13.3999V14.3999ZM21.1204 21.1199V22.1199H21.216V21.1199V20.1199H21.1204V21.1199ZM26.8804 21.1199V22.1199H26.9654V21.1199V20.1199H26.8804V21.1199ZM21.216 21.1199H20.216V21.1968H21.216H22.216V21.1199H21.216ZM21.216 21.1968V20.1968H21.1204V21.1968V22.1968H21.216V21.1968ZM21.1204 21.1968H22.1204V21.1199H21.1204H20.1204V21.1968H21.1204ZM26.9654 21.1199H25.9654V21.1968H26.9654H27.9654V21.1199H26.9654ZM26.9654 21.1968V20.1968H26.8804V21.1968V22.1968H26.9654V21.1968ZM26.8804 21.1968H27.8804V21.1199H26.8804H25.8804V21.1968H26.8804ZM24.0004 28.7998V27.7998C22.9706 27.7998 22.0527 27.2491 21.5226 26.3927L20.6723 26.9191L19.8221 27.4454C20.6918 28.8505 22.2319 29.7998 24.0004 29.7998V28.7998ZM27.3284 26.9191L26.4782 26.3927C25.948 27.2491 25.0302 27.7998 24.0004 27.7998V28.7998V29.7998C25.7689 29.7998 27.309 28.8505 28.1787 27.4454L27.3284 26.9191Z" fill="#3C3E44"/>
</svg>
