<svg width="48" height="48" viewBox="0 0 48 48" fill="none" xmlns="http://www.w3.org/2000/svg">
<circle cx="24" cy="24" r="24" fill="#65C3FF"/>
<path d="M19.5401 28.1173C19.2477 27.5042 18.0502 26.609 17.7522 26.4798C17.0706 26.1129 16.2781 25.966 15.4978 26.0617C14.7174 26.1575 13.9927 26.4906 13.4361 27.0094C12.8795 27.5282 12.5221 28.2038 12.4193 28.9312C12.3165 29.6587 12.4741 30.3975 12.8675 31.033C13.261 31.6685 13.8684 32.1652 14.5956 32.4461C15.3227 32.727 16.129 32.7764 16.8893 32.5866C17.6496 32.3968 18.3215 31.9785 18.8008 31.3964C19.28 30.8144 19.5399 30.1011 19.5401 29.3674V17.7038C19.5401 17.2333 19.868 16.8265 20.3278 16.7266L31.4964 14.3L31.4963 26.9884M31.4963 26.9884L31.4964 28.2386C31.4962 28.9724 31.2363 29.6856 30.757 30.2677C30.2777 30.8497 29.6059 31.2681 28.8455 31.4579C28.0852 31.6477 27.279 31.5983 26.5518 31.3174C25.8247 31.0365 25.2173 30.5398 24.8238 29.9043C24.4303 29.2688 24.2728 28.53 24.3756 27.8025C24.4784 27.075 24.8358 26.3995 25.3924 25.8807C25.949 25.3618 26.6737 25.0287 27.454 24.933C28.2344 24.8372 29.0269 24.9842 29.7085 25.3511C30.0064 25.4802 31.2037 26.3752 31.4963 26.9884Z" stroke="#3C3E44" stroke-width="2" stroke-linecap="round" stroke-linejoin="round"/>
</svg>
