<svg width="1566" height="320" viewBox="0 0 1566 320" fill="none" xmlns="http://www.w3.org/2000/svg">
<path d="M1550 0C1558.84 0 1566 7.16344 1566 16V240C1566 240 1404.35 218.907 1259.71 193.367C860.125 122.815 528 320 310 320C92 320 0 245.776 0 245.776V16C0 7.16344 7.16344 0 16 0H1550Z" fill="url(#paint0_linear_819_10747)"/>
<path d="M1550 0C1558.84 0 1566 7.16344 1566 16V60C1566 68.8365 1558.84 76 1550 76H16C7.16346 76 0 68.8365 0 60V16C0 7.16344 7.16344 0 16 0H1550Z" fill="url(#paint1_linear_819_10747)"/>
<defs>
<linearGradient id="paint0_linear_819_10747" x1="782.5" y1="83.1913" x2="783.28" y2="-0.00213287" gradientUnits="userSpaceOnUse">
<stop stop-color="white"/>
<stop offset="1" stop-color="white" stop-opacity="0.76"/>
</linearGradient>
<linearGradient id="paint1_linear_819_10747" x1="782.5" y1="19.7579" x2="782.544" y2="-0.00214731" gradientUnits="userSpaceOnUse">
<stop stop-color="white"/>
<stop offset="1" stop-color="white" stop-opacity="0.76"/>
</linearGradient>
</defs>
</svg>
