<svg width="152" height="145" viewBox="0 0 152 145" fill="none" xmlns="http://www.w3.org/2000/svg">
<g clip-path="url(#clip0_800_4331)">
<path d="M126.333 27.2254L119.642 58.4178C119.642 58.4178 119.434 59.1772 119.244 59.388C118.972 59.6895 118.637 59.7847 118.259 59.9298C109.924 63.1284 104.01 71.2167 104.01 80.6855C104.01 84.8294 105.142 88.7057 107.114 92.0245C107.246 92.2466 107.325 92.403 107.286 92.6569C107.255 92.8768 107.18 92.9652 107.006 93.1035C103.114 96.2092 98.2161 98 93.0583 98C91.4983 98 89.9156 97.8345 88.3284 97.4945C88.2831 97.4854 88.2401 97.4741 88.1948 97.465C88.1473 97.4537 88.102 97.4446 88.0544 97.4355C75.9456 94.8332 68.2383 82.8957 70.8375 70.7746L72.7214 61.9859C72.7666 61.6413 72.7915 61.299 72.7915 60.9613C72.7915 57.3456 70.276 54.0948 66.6058 53.306C62.5121 52.4287 58.4841 54.9245 57.4086 58.9233L52.8463 80.1981C50.5866 90.7323 41.2899 97.9411 30.9471 97.9411C29.387 97.9411 27.8044 97.7756 26.2172 97.4355C14.1083 94.8332 6.40099 82.8957 9.00028 70.7746L20.3756 17.743C22.6352 7.20871 31.932 0 42.2748 0C43.8348 0 45.4175 0.165483 47.0047 0.505517C53.8991 1.98806 59.3649 6.49691 62.3151 12.341C62.3151 12.3387 62.3174 12.3342 62.3174 12.3319C63.9544 15.238 66.7824 17.4528 70.2987 18.2054L71.0074 18.3573C76.2376 19.4749 81.3977 17.0153 83.9495 12.6266C83.9563 12.6266 83.9631 12.6266 83.9698 12.6289C88.376 3.54542 98.5399 -1.70924 108.842 0.505517C108.876 0.512318 108.908 0.521385 108.942 0.528186C109 0.541787 109.057 0.550855 109.116 0.564456C121.223 3.16685 128.932 15.1043 126.333 27.2254Z" fill="#009BFF"/>
<path d="M143.5 80.6457C143.5 90.2301 135.832 97.9998 126.373 97.9998C116.914 97.9998 109.246 90.2301 109.246 80.6457C109.246 71.0612 116.914 63.2915 126.373 63.2915C135.832 63.2915 143.5 71.0612 143.5 80.6457ZM123.048 80.6457C123.048 82.5062 124.537 84.0144 126.373 84.0144C128.209 84.0144 129.698 82.5062 129.698 80.6457C129.698 78.7852 128.209 77.2769 126.373 77.2769C124.537 77.2769 123.048 78.7852 123.048 80.6457Z" fill="#009BFF"/>
</g>
<path d="M11.1058 117.597C12.0173 117.597 12.8972 117.753 13.7457 118.065C14.6202 118.378 15.4507 118.833 16.237 119.432C16.3627 119.562 16.5014 119.692 16.6531 119.822C16.7878 119.692 16.9356 119.562 17.0964 119.432C17.9246 118.833 18.7739 118.378 19.6441 118.065C20.5405 117.753 21.4313 117.597 22.3167 117.597C23.2282 117.597 24.1082 117.753 24.9566 118.065C25.8311 118.378 26.6481 118.846 27.4076 119.471C28.1939 120.069 28.8689 120.876 29.4324 121.891C30.022 122.906 30.2922 124.116 30.2431 125.522L29.9527 133.837C29.742 135.399 28.8531 136.244 27.286 136.375C26.5568 136.375 25.927 136.14 25.3965 135.672C24.8929 135.177 24.6539 134.566 24.6793 133.837L24.9588 125.834C24.9806 125.209 24.8816 124.689 24.6617 124.273C24.4428 123.83 24.1942 123.492 23.9159 123.258C23.6386 122.997 23.3455 122.815 23.0366 122.711C22.7286 122.581 22.4184 122.516 22.1059 122.516C21.7934 122.516 21.4786 122.581 21.1616 122.711C20.8715 122.815 20.5787 122.997 20.2831 123.258C19.9885 123.492 19.7163 123.83 19.4664 124.273C19.2175 124.689 19.0691 125.209 19.0213 125.834L18.7418 133.837C18.531 135.399 17.6421 136.244 16.0751 136.375C15.3459 136.375 14.7161 136.14 14.1856 135.672C13.682 135.177 13.4429 134.566 13.4684 133.837L13.7478 125.834C13.7697 125.209 13.6706 124.689 13.4508 124.273C13.2319 123.83 12.9833 123.492 12.705 123.258C12.4276 122.997 12.1345 122.815 11.8257 122.711C11.5177 122.581 11.2075 122.516 10.895 122.516C10.5825 122.516 10.2677 122.581 9.95065 122.711C9.66056 122.815 9.36774 122.997 9.07219 123.258C8.77755 123.492 8.50532 123.83 8.2555 124.273C8.00658 124.689 7.8582 125.209 7.81034 125.834L7.53087 133.837C7.34613 135.399 6.47024 136.244 4.9032 136.375C4.17403 136.375 3.54419 136.14 3.01368 135.672C2.51011 135.177 2.27105 134.566 2.2965 133.837L2.58687 125.522C2.68803 124.116 3.05582 122.906 3.69022 121.891C4.32462 120.876 5.05592 120.069 5.88412 119.471C6.71322 118.846 7.56291 118.378 8.43319 118.065C9.32952 117.753 10.2204 117.597 11.1058 117.597ZM56.6324 133.837L56.961 124.429C56.9837 123.778 56.657 123.44 55.9808 123.414H42.3089C41.8132 123.44 41.3758 123.661 40.9967 124.077C40.6185 124.468 40.3287 124.936 40.1273 125.483C39.9529 126.003 39.8561 126.537 39.837 127.083C39.8189 127.604 39.8783 128.137 40.0155 128.684C40.1796 129.204 40.4367 129.673 40.7867 130.089C41.1377 130.48 41.5606 130.675 42.0554 130.675H52.0554C52.7845 130.675 53.3874 130.935 53.864 131.456C54.3676 131.95 54.6067 132.562 54.5812 133.29C54.5558 134.019 54.274 134.631 53.7359 135.125C53.2229 135.646 52.6019 135.906 51.8727 135.906H42.0289C40.2069 135.88 38.7142 135.373 37.5509 134.384C36.4144 133.369 35.6076 132.236 35.1304 130.987C34.6801 129.712 34.4786 128.398 34.5259 127.044C34.5713 125.743 34.8763 124.468 35.4407 123.219C36.0061 121.943 36.892 120.811 38.0984 119.822C39.3057 118.807 41.0566 118.261 43.351 118.183H59.7572C60.4864 118.183 61.1028 118.43 61.6063 118.924C62.1108 119.393 62.3633 119.991 62.3639 120.72L61.9059 133.837C61.8804 134.566 61.5856 135.177 61.0215 135.672C60.4843 136.14 59.8511 136.375 59.1219 136.375C57.564 136.244 56.7342 135.399 56.6324 133.837ZM73.1168 133.837C71.8514 132.041 70.6055 129.686 69.3792 126.771L67.031 121.306C66.9108 121.019 66.8436 120.707 66.8293 120.369C66.8027 119.64 67.0459 119.015 67.5588 118.495C68.0718 117.974 68.7319 117.714 69.5392 117.714C70.4246 117.714 71.0693 117.896 71.4733 118.261C71.9041 118.599 72.2403 119.041 72.4816 119.588L74.1594 124.116C74.5909 125.183 75.0112 126.198 75.4202 127.161C75.8563 128.098 76.3471 128.957 76.8928 129.738C77.4645 130.519 78.114 130.935 78.8413 130.987C79.5463 130.935 80.2249 130.519 80.8771 129.738C81.4513 128.957 81.9761 128.098 82.4515 127.161C82.9539 126.198 83.4581 125.183 83.9641 124.116L85.9582 119.588C86.2377 119.041 86.5916 118.599 87.0201 118.261C87.4756 117.896 88.146 117.714 89.0314 117.714C89.8387 117.714 90.4806 117.974 90.9573 118.495C91.4339 119.015 91.6334 119.64 91.5559 120.369C91.518 120.707 91.429 121.019 91.2888 121.306L88.5589 126.771C87.129 129.686 85.7186 132.041 84.3277 133.837C82.9899 135.607 81.0966 136.505 78.6477 136.531C76.1747 136.505 74.3311 135.607 73.1168 133.837ZM101.593 133.837C100.328 132.041 99.0821 129.686 97.8557 126.771L95.5075 121.306C95.3873 121.019 95.3201 120.707 95.3059 120.369C95.2793 119.64 95.5224 119.015 96.0354 118.495C96.5484 117.974 97.2085 117.714 98.0158 117.714C98.9012 117.714 99.5459 117.896 99.9498 118.261C100.381 118.599 100.717 119.041 100.958 119.588L102.636 124.116C103.067 125.183 103.488 126.198 103.897 127.161C104.333 128.098 104.824 128.957 105.369 129.738C105.941 130.519 106.591 130.935 107.318 130.987C108.023 130.935 108.701 130.519 109.354 129.738C109.928 128.957 110.453 128.098 110.928 127.161C111.43 126.198 111.935 125.183 112.441 124.116L114.435 119.588C114.714 119.041 115.068 118.599 115.497 118.261C115.952 117.896 116.623 117.714 117.508 117.714C118.315 117.714 118.957 117.974 119.434 118.495C119.91 119.015 120.11 119.64 120.032 120.369C119.995 120.707 119.906 121.019 119.765 121.306L117.035 126.771C115.606 129.686 114.195 132.041 112.804 133.837C111.466 135.607 109.573 136.505 107.124 136.531C104.651 136.505 102.808 135.607 101.593 133.837ZM131.834 135.906C129.545 135.828 127.832 135.294 126.694 134.305C125.558 133.29 124.751 132.158 124.274 130.909C123.797 129.634 123.582 128.346 123.627 127.044C123.675 125.691 123.968 124.39 124.506 123.14C125.071 121.865 125.957 120.733 127.164 119.744C128.397 118.729 129.926 118.209 131.749 118.183H146.593C147.322 118.183 147.926 118.43 148.403 118.924C148.908 119.393 149.148 119.965 149.124 120.642C149.1 121.345 148.819 121.943 148.281 122.438C147.769 122.906 147.149 123.14 146.42 123.14H131.811C131.238 123.14 130.723 123.336 130.267 123.726C129.836 124.116 129.506 124.624 129.276 125.249C129.072 125.873 128.959 126.485 128.939 127.083C128.916 127.734 128.985 128.372 129.145 128.996C129.332 129.621 129.627 130.128 130.03 130.519C130.46 130.883 130.961 131.078 131.533 131.104H146.142C146.871 131.104 147.475 131.339 147.953 131.807C148.458 132.275 148.699 132.835 148.676 133.486C148.652 134.162 148.372 134.735 147.835 135.203C147.324 135.672 146.703 135.906 145.974 135.906H131.834ZM148.435 126.966C148.418 127.461 148.181 127.89 147.726 128.254C147.323 128.593 146.823 128.762 146.224 128.762H133.45C132.851 128.762 132.349 128.593 131.945 128.254C131.541 127.89 131.347 127.461 131.365 126.966C131.381 126.498 131.604 126.081 132.033 125.717C132.462 125.379 132.975 125.209 133.574 125.209H146.348C146.947 125.209 147.448 125.392 147.852 125.756C148.257 126.094 148.451 126.498 148.435 126.966Z" fill="#005993"/>
<defs>
<clipPath id="clip0_800_4331">
<rect width="135" height="98" fill="white" transform="translate(8.5)"/>
</clipPath>
</defs>
</svg>
