<svg width="48" height="48" viewBox="0 0 48 48" fill="none" xmlns="http://www.w3.org/2000/svg">
<path d="M12.3943 41.8686L30.5114 24.8172L39.0371 33.3429M12.3943 41.8686H33.7086C37.24 41.8686 40.1028 39.0058 40.1028 35.4743V24.8172M12.3943 41.8686C8.86282 41.8686 6 39.0058 6 35.4743V14.16C6 10.6285 8.86282 7.76573 12.3943 7.76573H26.2486M37.9714 18.0572L37.9714 12.0286M37.9714 12.0286L37.9714 6M37.9714 12.0286L31.9428 12.0286M37.9714 12.0286L44 12.0286M18.7886 17.3572C18.7886 19.1229 17.3572 20.5543 15.5914 20.5543C13.8257 20.5543 12.3943 19.1229 12.3943 17.3572C12.3943 15.5914 13.8257 14.16 15.5914 14.16C17.3572 14.16 18.7886 15.5914 18.7886 17.3572Z" stroke="#3C3E44" stroke-width="3" stroke-linecap="round" stroke-linejoin="round"/>
</svg>
