<svg width="current" height="current" viewBox="0 0 42 40" fill="none" xmlns="http://www.w3.org/2000/svg">
<path d="M8.39428 37.8686L26.5114 20.8172L35.0371 29.3429M8.39428 37.8686H29.7086C33.24 37.8686 36.1028 35.0058 36.1028 31.4743V20.8172M8.39428 37.8686C4.86282 37.8686 2 35.0058 2 31.4743V10.16C2 6.62855 4.86282 3.76573 8.39428 3.76573H22.2486M33.9714 14.0572L33.9714 8.02859M33.9714 8.02859L33.9714 2M33.9714 8.02859L27.9428 8.02859M33.9714 8.02859L40 8.02859M14.7886 13.3572C14.7886 15.1229 13.3572 16.5543 11.5914 16.5543C9.82569 16.5543 8.39428 15.1229 8.39428 13.3572C8.39428 11.5914 9.82569 10.16 11.5914 10.16C13.3572 10.16 14.7886 11.5914 14.7886 13.3572Z" stroke="#3C3E44" stroke-width="3" stroke-linecap="round" stroke-linejoin="round"/>
</svg>
