<svg width="48" height="48" viewBox="0 0 48 48" fill="none" xmlns="http://www.w3.org/2000/svg">
<rect width="48" height="48" rx="24" fill="#009BFF"/>
<path d="M20.186 28.8179C19.8922 28.1781 18.6889 27.244 18.3895 27.1092C17.7045 26.7264 16.9083 26.573 16.1241 26.6729C15.34 26.7729 14.6118 27.1205 14.0525 27.6618C13.4932 28.2032 13.1341 28.9081 13.0308 29.6672C12.9275 30.4264 13.0858 31.1973 13.4812 31.8604C13.8765 32.5235 14.4869 33.0418 15.2175 33.3349C15.9482 33.628 16.7583 33.6796 17.5223 33.4815C18.2863 33.2835 18.9615 32.8469 19.4431 32.2396C19.9247 31.6322 20.1858 30.888 20.186 30.1223V17.9101C20.186 17.4426 20.5099 17.0375 20.9659 16.9346L32.2 14.3999L32.1999 27.6399M32.1999 27.6399L32.2 28.9445C32.1998 29.7102 31.9387 30.4544 31.4571 31.0618C30.9755 31.6691 30.3004 32.1057 29.5364 32.3037C28.7724 32.5018 27.9622 32.4502 27.2316 32.1571C26.5009 31.864 25.8906 31.3457 25.4952 30.6826C25.0998 30.0194 24.9415 29.2485 25.0448 28.4894C25.1481 27.7303 25.5072 27.0254 26.0665 26.484C26.6258 25.9426 27.354 25.595 28.1381 25.4951C28.9223 25.3952 29.7186 25.5486 30.4035 25.9314C30.7029 26.0662 31.9059 27.0001 32.1999 27.6399Z" stroke="#FCFEFF" stroke-width="2" stroke-linecap="round" stroke-linejoin="round"/>
</svg>
